<?xml version="1.0" encoding="utf-8"?>
<!-- Generator: Adobe Illustrator 18.1.0, SVG Export Plug-In . SVG Version: 6.00 Build 0)  -->
<!DOCTYPE svg PUBLIC "-//W3C//DTD SVG 1.1//EN" "http://www.w3.org/Graphics/SVG/1.1/DTD/svg11.dtd">
<svg version="1.1" id="Layer_1" xmlns="http://www.w3.org/2000/svg" xmlns:xlink="http://www.w3.org/1999/xlink" x="0px" y="0px"
	 viewBox="0 0 72 72" enable-background="new 0 0 72 72" xml:space="preserve">
<g>
	<g>
		<path fill="#D5C628" d="M43.6,37H20.1c-0.4,0-0.8-0.3-0.8-0.8s0.3-0.8,0.8-0.8h23.5c2,0,3.6-1.6,3.6-3.6s-1.6-3.6-3.6-3.6
			c-1,0-1.9,0.4-2.6,1.1c-0.3,0.3-0.8,0.3-1.1,0c-0.3-0.3-0.3-0.8,0-1.1c1-1,2.3-1.6,3.7-1.6c2.9,0,5.2,2.3,5.2,5.2
			C48.8,34.7,46.5,37,43.6,37z"/>
	</g>
	<g>
		<path fill="#D5C628" d="M42.4,40.7H20.1c-0.4,0-0.8-0.3-0.8-0.8c0-0.4,0.3-0.8,0.8-0.8h22.3c4.8,0,8.7-3.9,8.7-8.7
			c0-4.8-3.9-8.7-8.7-8.7c-2.3,0-4.6,0.9-6.2,2.6c-0.3,0.3-0.8,0.3-1.1,0c-0.3-0.3-0.3-0.8,0-1.1c1.9-2,4.5-3.1,7.3-3.1
			c5.7,0,10.3,4.6,10.3,10.3S48.1,40.7,42.4,40.7z"/>
	</g>
	<g>
		<path fill="#D5C628" d="M40.2,51.8c-1.2,0-2.4-0.5-3.2-1.3c-0.3-0.3-0.3-0.8,0-1.1c0.3-0.3,0.8-0.3,1.1,0c0.6,0.6,1.3,0.9,2.1,0.9
			c1.6,0,2.9-1.3,2.9-2.9c0-1.6-1.3-2.9-2.9-2.9H20.1c-0.4,0-0.8-0.3-0.8-0.8c0-0.4,0.3-0.8,0.8-0.8h20.1c2.5,0,4.5,2,4.5,4.5
			C44.7,49.8,42.7,51.8,40.2,51.8z"/>
	</g>
	<g>
		<path fill="#D5C628" d="M35.3,33.3H20.1c-0.4,0-0.8-0.3-0.8-0.8c0-0.4,0.3-0.8,0.8-0.8h15.2c1.1,0,2-0.9,2-2s-0.9-2-2-2
			c-0.6,0-1.1,0.2-1.5,0.6c-0.3,0.3-0.8,0.3-1.1,0c-0.3-0.3-0.3-0.8,0-1.1c0.7-0.7,1.6-1.1,2.6-1.1c2,0,3.6,1.6,3.6,3.6
			C38.9,31.7,37.3,33.3,35.3,33.3z"/>
	</g>
</g>
</svg>
