<?xml version="1.0" encoding="utf-8"?>
<!-- Generator: Adobe Illustrator 18.1.1, SVG Export Plug-In . SVG Version: 6.00 Build 0)  -->
<!DOCTYPE svg PUBLIC "-//W3C//DTD SVG 1.1//EN" "http://www.w3.org/Graphics/SVG/1.1/DTD/svg11.dtd">
<svg version="1.1" id="Layer_1" xmlns="http://www.w3.org/2000/svg" xmlns:xlink="http://www.w3.org/1999/xlink" x="0px" y="0px"
	 viewBox="0 0 216 216" enable-background="new 0 0 216 216" xml:space="preserve">
<g>
	<path fill="#B62025" d="M165.7,113.6c0-0.2-5.4-18.6-9.7-33.3c-2.6-9.1-8.9-18.1-16.8-25.1c-6.9-5.8-18.4-13-34.6-13
		c-13.4,0-27.2,5.6-37.8,15.3c-10.6,9.9-16.6,22.9-16.6,35.9c0,12.1,3.9,24,11,34.6c3.9,5.6,7.6,9.3,9.7,11.2v22.2
		c0,1.9,1.3,3.7,3.2,3.9l47.1,8.2c0.2,0,0.4,0,0.6,0c0.9,0,1.7-0.2,2.6-0.9c0.9-0.6,1.5-1.9,1.5-3v-19.9l23.5-1.5
		c2.2-0.2,3.7-1.9,3.7-3.9l-0.2-25.7h9.1c1.3,0,2.4-0.6,3.2-1.5C165.9,116,166.1,114.7,165.7,113.6z M148.6,114.7l0.2,29.8
		l-27.2,1.7v23.5l-22.9-3.9c0-10.2,0-56.2,0-61.1c0-3.5,1.9-3.5,3.9-3.5c1.9,0,37.4,0,37.4,0c3.9,0,6.9-3,6.9-6.9
		c0-3.2-2.2-5.8-5-6.7c2.4-1.3,3.9-3.7,3.9-6.5c0-4.1-3.5-7.6-7.6-7.6c-0.4,0-0.9,0-1.3,0.2c0.6-1.1,0.9-2.2,0.9-3.2
		c0-3.9-3-6.9-6.9-6.9c-1.7,0-3,0.6-4.3,1.5c0-0.4,0.2-1.1,0.2-1.5c0-3.9-3-6.9-6.9-6.9c-2.6,0-5,1.5-6,3.5
		c-0.6-3.7-3.9-6.7-7.8-6.7s-7.1,2.8-7.8,6.7c-1.1-2.2-3.5-3.5-6-3.5c-3.9,0-6.9,3-6.9,6.9c0,0.4,0,1.1,0.2,1.5
		c-1.3-0.9-2.8-1.5-4.5-1.5c-4.1,0-7.6,3.5-7.6,7.6c0,1.5,0.4,2.8,1.1,3.9C73.9,75,73.4,75,72.8,75c-3.9,0-6.9,3-6.9,6.9
		c0,2.6,1.5,4.8,3.5,6c-2.8,0.9-4.8,3.5-4.8,6.5c0,3.9,3,6.9,6.9,6.9c1.3,0,2.4-0.2,3.5-0.9c-0.6,1.1-1.1,2.2-1.1,3.5
		c0,3.9,3,6.9,6.9,6.9h10.4v53.6l-16.2-2.8v-24c0,0-20.5-16.4-20.5-43.8c0-24.6,24.4-47.3,50.5-47.3s43.2,20.1,47.5,35
		c4.3,14.9,9.7,33.3,9.7,33.3L148.6,114.7L148.6,114.7z"/>
</g>
</svg>
