<?xml version="1.0" encoding="utf-8"?>
<!-- Generator: Adobe Illustrator 18.1.1, SVG Export Plug-In . SVG Version: 6.00 Build 0)  -->
<!DOCTYPE svg PUBLIC "-//W3C//DTD SVG 1.1//EN" "http://www.w3.org/Graphics/SVG/1.1/DTD/svg11.dtd">
<svg version="1.1" id="Layer_1" xmlns="http://www.w3.org/2000/svg" xmlns:xlink="http://www.w3.org/1999/xlink" x="0px" y="0px"
	 viewBox="0 0 216 216" enable-background="new 0 0 216 216" xml:space="preserve">
<g id="Captions">
</g>
<g id="Your_Icon">
	<g>
		<path fill="#30AF4A" d="M157.7,66.5c1.9,0.6,4.1,0.9,6.3,0.2c5.6-1.5,8.9-7.3,7.3-12.7c-1.5-5.6-7.3-8.9-12.7-7.6
			c-5.6,1.5-8.9,7.3-7.3,12.7c0.4,1.3,0.9,2.6,1.7,3.7l-14.3,18.8c-0.9-0.2-1.7-0.4-2.6-0.6c-5.8-0.6-11,3.7-11.4,9.5
			c0,0.4,0,0.6,0,1.1l-22,5.8c-1.7-2.6-4.5-4.5-7.8-5c-5.8-0.6-11,3.7-11.4,9.5c-0.2,2.4,0.4,4.8,1.5,6.5l-18.6,21.8
			c-1.1-0.4-2.4-0.9-3.5-1.1c-5.8-0.6-11,3.7-11.4,9.5c-0.6,5.8,3.7,11,9.5,11.4c5.8,0.6,11-3.7,11.4-9.5c0.2-2.4-0.4-4.5-1.5-6.5
			l18.6-21.8c1.1,0.4,2.2,0.9,3.5,1.1c5.8,0.6,11-3.7,11.4-9.5c0-0.2,0-0.6,0-0.9l22-5.8c1.7,2.6,4.5,4.3,7.8,4.8
			c5.8,0.6,11-3.7,11.4-9.5c0.2-2.8-0.4-5.2-1.9-7.3L157.7,66.5z M160.1,51.6c2.8-0.9,5.8,0.9,6.5,3.9c0.9,2.8-0.9,5.8-3.9,6.5
			c-2.8,0.9-5.8-0.9-6.5-3.9C155.5,55.3,157.2,52.3,160.1,51.6z M61.1,145.2c-3-0.2-5.2-2.8-4.8-5.8c0.2-3,2.8-5.2,5.8-4.8
			c3,0.2,5.2,2.8,4.8,5.8C66.5,143.2,63.9,145.4,61.1,145.2z M93.1,108.2c-3-0.2-5.2-2.8-4.8-5.8c0.2-3,2.8-5.2,5.8-4.8
			c3,0.2,5.2,3,4.8,5.8C98.5,106.5,95.9,108.6,93.1,108.2z M134.4,97c-3-0.2-5.2-2.8-4.8-5.8c0.2-3,2.8-5.2,5.8-4.8
			c3,0.2,5.2,2.8,4.8,5.8C140,95,137.4,97.2,134.4,97z"/>
		<rect x="83.6" y="131.1" fill="#30AF4A" width="20.7" height="19.2"/>
		<rect x="117.3" y="114.3" fill="#30AF4A" width="20.7" height="36.1"/>
		<rect x="151.2" y="92.9" fill="#30AF4A" width="20.7" height="57.5"/>
	</g>
	<rect x="41.3" y="45.4" fill="#30AF4A" width="2.8" height="125.3"/>
	<rect x="28.5" y="155.1" fill="#30AF4A" width="159" height="2.8"/>
</g>
</svg>
