<?xml version="1.0" encoding="utf-8"?>
<!-- Generator: Adobe Illustrator 18.1.0, SVG Export Plug-In . SVG Version: 6.00 Build 0)  -->
<!DOCTYPE svg PUBLIC "-//W3C//DTD SVG 1.1//EN" "http://www.w3.org/Graphics/SVG/1.1/DTD/svg11.dtd">
<svg version="1.1" id="Layer_1" xmlns="http://www.w3.org/2000/svg" xmlns:xlink="http://www.w3.org/1999/xlink" x="0px" y="0px"
	 viewBox="0 0 72 72" enable-background="new 0 0 72 72" xml:space="preserve">
<g>
	<path fill="#30AF4A" d="M37.4,40.2c3-5,9.1-5.6,9.1-5.6c-5.3,2.8-7.6,6.3-7.9,8.5c13.6,2.2,14.2-11.9,14.2-11.9
		C40,28.8,37.9,37.1,37.4,40.2z M31.6,30.7c0,0,0.1-4.5-3.2-7.4c0,0,3.6,1.5,5.1,5.3c0.2-2.3-0.2-8.3-9.7-8.8
		C23.9,19.9,23,29.5,31.6,30.7z M37.6,50.9c-1-3.4-4.4-17.8,5-35c0,0-13.3,14-9.6,35.1c-7.8,0.2-13.8,1.3-13.8,2.6
		c0,1.5,7.4,2.6,16.6,2.6s16.6-1.2,16.6-2.6C52.3,52.2,45.9,51,37.6,50.9z"/>
</g>
</svg>
