<?xml version="1.0" encoding="utf-8"?>
<!-- Generator: Adobe Illustrator 18.1.0, SVG Export Plug-In . SVG Version: 6.00 Build 0)  -->
<!DOCTYPE svg PUBLIC "-//W3C//DTD SVG 1.1//EN" "http://www.w3.org/Graphics/SVG/1.1/DTD/svg11.dtd">
<svg version="1.1" id="Layer_1" xmlns="http://www.w3.org/2000/svg" xmlns:xlink="http://www.w3.org/1999/xlink" x="0px" y="0px"
	 viewBox="0 0 72 72" enable-background="new 0 0 72 72" xml:space="preserve">
<g>
	<path fill="#B62025" d="M41.2,42.2C53,23.1,33,14.9,33,14.9c5.1,4.3,6.9,18.8-2.5,19c-6.7,0.1-5.5-7-4.8-8.5
		c-0.8,1.1-5.8,10-3.7,19c2.1,9,14.8,12.6,14.8,12.6C34.2,49.2,39.2,45.4,41.2,42.2z"/>
	<path fill="#B62025" d="M46.5,31c1,1.9-1.1,10-4.2,13.7c-5.8,6.9-4,10.3-3.5,11.9c0.1-0.2,0.8-1,6.2-4.6C56.5,44.1,46.5,31,46.5,31
		z"/>
	<path fill="#B62025" d="M38.8,56.7C38.8,56.7,38.8,56.7,38.8,56.7C38.7,56.7,38.8,56.7,38.8,56.7z"/>
	<path fill="#B62025" d="M25.7,25.4c0.1-0.1,0.1-0.1,0.1-0.1C25.8,25.3,25.8,25.4,25.7,25.4z"/>
</g>
</svg>
