<?xml version="1.0" encoding="utf-8"?>
<!-- Generator: Adobe Illustrator 18.1.1, SVG Export Plug-In . SVG Version: 6.00 Build 0)  -->
<!DOCTYPE svg PUBLIC "-//W3C//DTD SVG 1.1//EN" "http://www.w3.org/Graphics/SVG/1.1/DTD/svg11.dtd">
<svg version="1.1" id="Capa_1" xmlns="http://www.w3.org/2000/svg" xmlns:xlink="http://www.w3.org/1999/xlink" x="0px" y="0px"
	 viewBox="0 0 216 216" enable-background="new 0 0 216 216" xml:space="preserve">
<g>
	<path fill="#D37A28" d="M71.3,87.2c-1.5,0-2.6,1.3-2.6,2.6v5.4c0,1.5,1.3,2.6,2.6,2.6h6c0.2,0.9,0.6,1.5,0.9,2.4l-5,5
		c-0.4,0.4-0.9,1.1-0.9,1.9c0,0.6,0.2,1.3,0.9,1.9l3.7,3.7c1.1,1.1,2.8,1.1,3.9,0l5-5c0.6,0.4,1.5,0.6,2.4,0.9v6
		c0,1.5,1.3,2.6,2.6,2.6h5.4c1.5,0,2.6-1.3,2.6-2.6v-6c0.9-0.2,1.5-0.6,2.4-0.9l5,5c1.1,1.1,2.8,1.1,3.9,0l3.7-3.7
		c0.4-0.4,0.9-1.1,0.9-1.9c0-0.6-0.2-1.3-0.9-1.9l-5-5c0.4-0.6,0.6-1.5,0.9-2.4h6c1.5,0,2.6-1.3,2.6-2.6v-5.4c0-1.5-1.3-2.6-2.6-2.6
		h-6c-0.2-0.9-0.6-1.5-0.9-2.4l5-5c0.4-0.4,0.9-1.1,0.9-1.9c0-0.6-0.2-1.3-0.9-1.9l-3.7-3.9c-1.1-1.1-2.8-1.1-3.9,0l-5,5
		c-0.6-0.4-1.5-0.6-2.4-0.9v-6c0-1.5-1.3-2.6-2.6-2.6h-5.4c-1.5,0-2.6,1.3-2.6,2.6v6c-0.9,0.2-1.5,0.6-2.4,0.9l-5-5
		C79.7,71,78,71,76.9,72L73,75.9c-1.1,1.1-1.1,2.8,0,3.9l5,5c-0.4,0.6-0.6,1.5-0.9,2.4H71.3L71.3,87.2z M81,83.7l-5.6-5.6l3.5-3.5
		l5.6,5.6c0.4,0.4,1.3,0.6,1.7,0.2c1.1-0.6,2.4-1.3,3.7-1.5c0.6-0.2,1.1-0.6,1.1-1.5v-6.9h5v6.9c0,0.6,0.4,1.3,1.1,1.5
		c1.3,0.2,2.6,0.9,3.7,1.5c0.6,0.4,1.3,0.2,1.7-0.2l5.6-5.6l3.5,3.5l-5.6,5.6c-0.4,0.4-0.6,1.3-0.2,1.7c0.6,1.1,1.1,2.4,1.5,3.7
		c0.2,0.6,0.6,1.1,1.5,1.1h6.9v5h-6.9c-0.6,0-1.3,0.4-1.5,1.1c-0.4,1.3-0.9,2.6-1.5,3.7c-0.4,0.6-0.2,1.3,0.2,1.7l5.6,5.6l-3.5,3.5
		l-5.6-5.6c-0.4-0.4-1.3-0.6-1.7-0.2c-1.1,0.6-2.4,1.3-3.7,1.5c-0.6,0.2-1.1,0.6-1.1,1.5v6.9h-5v-6.9c0-0.6-0.4-1.3-1.1-1.5
		c-1.3-0.4-2.6-0.9-3.7-1.5c-0.6-0.4-1.3-0.2-1.7,0.2l-5.6,5.6l-3.5-3.5l5.6-5.6c0.4-0.4,0.6-1.3,0.2-1.7c-0.6-1.1-1.1-2.4-1.5-3.7
		c-0.2-0.6-0.6-1.1-1.5-1.1h-6.9v-5h6.9c0.6,0,1.3-0.4,1.5-1.1c0.4-1.3,0.9-2.6,1.5-3.7C81.6,84.8,81.6,84.1,81,83.7z"/>
	<path fill="#D37A28" d="M93.5,101.8c5.2,0,9.3-4.1,9.3-9.3c0-5.2-4.1-9.3-9.3-9.3c-5.2,0-9.3,4.1-9.3,9.3
		C84.2,97.7,88.3,101.8,93.5,101.8z M93.5,86.3c3.5,0,6.3,2.8,6.3,6.3c0,3.5-2.8,6.3-6.3,6.3c-3.5,0-6.3-2.8-6.3-6.3
		C87.3,89.1,90.1,86.3,93.5,86.3z"/>
	<path fill="#D37A28" d="M169.1,45.5H46.7c-5.6,0-10.2,4.5-10.2,10.2v78.6c0,5.6,4.5,10.2,10.2,10.2H89v14.5h-7.3
		c-3.2,0-5.8,2.6-5.8,5.8c0,3.2,2.6,5.8,5.8,5.8h52.5c3.2,0,5.8-2.6,5.8-5.8c0-3.2-2.6-5.8-5.8-5.8H127v-14.5h42.3
		c5.6,0,10.2-4.5,10.2-10.2V55.6C179.3,50,174.7,45.5,169.1,45.5z M46.9,48.3h122.5c4.1,0,7.3,3.2,7.3,7.3v68.5H39.7V76.4h13.8
		c0.9,0,1.5-0.6,1.5-1.5c0-0.9-0.6-1.5-1.5-1.5H39.7v-5.8h13.8c0.9,0,1.5-0.6,1.5-1.5c0-0.9-0.6-1.5-1.5-1.5H39.7v-5.8H40h22.2
		c0.9,0,1.5-0.6,1.5-1.5c0-0.9-0.6-1.5-1.5-1.5H40h-0.2v-0.4C39.5,51.7,42.8,48.3,46.9,48.3z M137.2,164.9c0,1.5-1.3,3-2.8,3H81.9
		c-1.5,0-2.8-1.3-2.8-3c0-1.5,1.3-2.8,2.8-2.8h52.3C135.9,162.1,137.2,163.4,137.2,164.9z M124,159.1H92v-14.5h32V159.1L124,159.1z
		 M169.1,141.6H46.7c-4.1,0-7.3-3.2-7.3-7.3v-7.3h136.9v7.3C176.5,138.3,173.2,141.6,169.1,141.6z"/>
	<circle fill="#D37A28" cx="68" cy="57.6" r="1.5"/>
	<path fill="#D37A28" d="M116.9,79.2c-0.4,0.2-0.9,0.4-1.1,0.9c-0.2,0.4-0.2,0.9,0,1.3l1.1,3.5c0.2,0.9,1.3,1.5,2.4,1.1l3.9-0.9
		c0.4,0.4,0.6,0.9,1.1,1.3l-2.2,4.3c-0.2,0.4-0.2,0.9,0,1.3c0.2,0.4,0.4,0.9,0.9,1.1l3.2,1.7c0.9,0.4,1.9,0,2.4-0.9l2.2-4.3
		c0.6,0,1.3,0.2,1.7,0.2l1.3,4.1c0.2,0.9,0.9,1.3,1.7,1.3c0.2,0,0.4,0,0.6,0l3.5-1.1c0.9-0.2,1.5-1.3,1.1-2.4l-1.3-4.1
		c0.4-0.4,0.9-0.6,1.3-1.1l4.3,2.2c0.9,0.4,1.9,0,2.4-0.9l1.7-3.2c0.2-0.4,0.2-0.9,0.2-1.3c-0.2-0.4-0.4-0.9-0.9-1.1l-4.3-2.2
		c0-0.6,0.2-1.3,0.2-1.7l4.1-1.3c0.9-0.2,1.5-1.3,1.1-2.4l-1.1-3.7c-0.2-0.9-1.3-1.5-2.4-1.1l-4.1,1.3c-0.4-0.4-0.9-0.9-1.1-1.3
		l2.2-4.3c0.2-0.4,0.2-0.9,0.2-1.3c0.2-1.1-0.2-1.5-0.6-1.7l-3.2-1.7c-0.9-0.4-1.9,0-2.4,0.9l-2.2,4.3c-0.6,0-1.3-0.2-1.7-0.2
		l-1.3-4.1c-0.2-0.9-1.3-1.5-2.4-1.1l-3.5,1.1c-0.9,0.2-1.5,1.3-1.1,2.4l1.3,4.1c-0.4,0.4-0.9,0.6-1.3,1.1l-4.3-2.2
		c-0.9-0.4-1.9,0-2.4,0.9l-2.4,3.5c-0.2,0.4-0.2,0.9,0,1.3c0.2,0.4,0.4,0.9,0.9,1.1l4.3,2.2c0,0.6,0,1.3,0,1.9L116.9,79.2z
		 M122.5,74.6l-5-2.6l1.5-3.2l5.2,2.6c0.4,0.2,0.9,0,1.1-0.2c0.6-0.6,1.3-1.3,2.2-1.7c0.4-0.2,0.6-0.6,0.4-1.1l-1.5-4.5l3.2-1.3
		l1.5,4.5c0.2,0.4,0.4,0.6,1.1,0.6c0.9,0,1.9,0,2.8,0.2c0.4,0,0.9-0.2,1.1-0.4l2.4-4.8l3.2,1.5l-2.6,5c-0.2,0.4-0.2,0.9,0.2,1.1
		c0.6,0.6,1.3,1.3,1.7,2.2c0.2,0.4,0.6,0.4,1.1,0.4l4.8-1.5l1.1,3.5l-4.5,1.5c-0.4,0.2-0.6,0.6-0.6,1.1c0,0.9,0,1.9-0.2,2.8
		c0,0.4,0.2,0.9,0.4,1.1l5,2.6l-1.5,3.2l-5-2.6c-0.4-0.2-0.9-0.2-1.1,0.2c-0.6,0.6-1.3,1.3-2.2,1.7c-0.4,0.2-0.4,0.6-0.4,1.1
		l1.5,4.5l-3.5,0.9l-1.5-4.5c-0.2-0.4-0.4-0.6-0.9-0.6l0,0c-0.9,0-1.9,0-2.8-0.2c-0.4,0-0.9,0.2-1.1,0.4l-2.6,5l-3.2-1.5l2.6-5
		c0.2-0.4,0-0.9-0.2-1.1c-0.6-0.6-1.3-1.3-1.7-2.2c-0.2-0.4-0.6-0.6-1.1-0.4l-4.8,1.5l-1.1-3.5l4.5-1.5c0.4-0.2,0.6-0.4,0.6-1.1
		c0-0.9,0-1.9,0.2-2.8C123.1,75.3,122.9,74.8,122.5,74.6z"/>
	<path fill="#D37A28" d="M132.8,84.3c0.6,0,1.3,0,1.9-0.2c1.7-0.4,3-1.7,3.7-3.2c0.9-1.5,0.9-3.2,0.4-5c-0.9-2.8-3.2-4.5-6-4.5
		c-0.6,0-1.3,0.2-1.9,0.4c-1.7,0.4-3,1.7-3.7,3.2c-0.9,1.5-0.9,3.2-0.4,5C127.4,82.6,130,84.3,132.8,84.3z M128.7,75.9
		c0.6-1.1,1.5-1.9,2.6-2.2c0.4-0.2,0.9-0.2,1.3-0.2c1.9,0,3.7,1.3,4.3,3c0.4,1.1,0.2,2.4-0.2,3.5c-0.6,1.1-1.5,1.9-2.6,2.2
		c-0.4,0.2-0.9,0.2-1.3,0.2c-1.9,0-3.7-1.3-4.3-3C128.1,78.1,128.3,76.8,128.7,75.9z"/>
</g>
</svg>
