<?xml version="1.0" encoding="utf-8"?>
<!-- Generator: Adobe Illustrator 18.1.0, SVG Export Plug-In . SVG Version: 6.00 Build 0)  -->
<!DOCTYPE svg PUBLIC "-//W3C//DTD SVG 1.1//EN" "http://www.w3.org/Graphics/SVG/1.1/DTD/svg11.dtd">
<svg version="1.1" id="Layer_1" xmlns="http://www.w3.org/2000/svg" xmlns:xlink="http://www.w3.org/1999/xlink" x="0px" y="0px"
	 viewBox="0 0 72 72" enable-background="new 0 0 72 72" xml:space="preserve">
<g>
	<path fill="#D37A28" d="M31.3,16.7l8.9,0c0,0-0.2,4.1,2.9,6.1c3.1,2,7.6,0.4,7.6,0.4l3.8,6.5c0,0-3.9,2.4-3.9,5.5
		c0,3.1,3.8,7.3,3.8,7.3l-4,6.6c0,0-3.9-2.3-7.3,0c-3.5,2.3-3.8,6.2-3.8,6.2l-7.6,0c0,0,0.2-4-3-6.1s-8-0.3-8-0.3l-3.5-6.4
		c0,0,3.2-2.4,3.5-6.4c0.3-4-3.5-6.5-3.5-6.5L21,23c0,0,4.4,2,7.8-0.1C32.2,20.7,31.3,16.7,31.3,16.7z M36,25.7
		c-5.8,0-10.5,4.7-10.5,10.4c0,5.8,4.7,10.5,10.4,10.5c5.8,0,10.5-4.7,10.5-10.4C46.4,30.4,41.8,25.7,36,25.7z"/>
</g>
</svg>
