<?xml version="1.0" encoding="utf-8"?>
<!-- Generator: Adobe Illustrator 18.1.0, SVG Export Plug-In . SVG Version: 6.00 Build 0)  -->
<!DOCTYPE svg PUBLIC "-//W3C//DTD SVG 1.1//EN" "http://www.w3.org/Graphics/SVG/1.1/DTD/svg11.dtd">
<svg version="1.1" id="Layer_1" xmlns="http://www.w3.org/2000/svg" xmlns:xlink="http://www.w3.org/1999/xlink" x="0px" y="0px"
	 viewBox="0 0 72 72" enable-background="new 0 0 72 72" xml:space="preserve">
<g>
	<g id="Your_Icon_18_">
		<path fill="#772B90" d="M53,52.3c0,0.4-0.3,0.6-0.6,0.6H19.6c-0.4,0-0.6-0.3-0.6-0.6l0,0c0-0.4,0.3-0.6,0.6-0.6h32.8
			C52.8,51.6,53,51.9,53,52.3L53,52.3z"/>
		<path fill="#772B90" d="M54.3,54c0,0.4-0.3,0.6-0.6,0.6H18.3c-0.4,0-0.6-0.3-0.6-0.6l0,0c0-0.4,0.3-0.6,0.6-0.6h35.4
			C54,53.3,54.3,53.6,54.3,54L54.3,54z"/>
		<path fill="#772B90" d="M36,17.4c-8.7,0-15.8,7.1-15.8,15.8v18.1h1.7v-18c0-7.7,6.4-13.9,14.1-13.9s14.1,6.2,14.1,13.9v18h1.7
			V33.1C51.8,24.4,44.7,17.4,36,17.4z"/>
		<path fill="#772B90" d="M28.7,48c-1.4-1-2.5-2.2-3.4-3.7c-0.9-1.4-1.5-3.1-1.8-4.8c-0.6-3.4,0.2-7.1,2.4-10c0.5-0.7,1.1-1.4,1.8-2
			c0.7-0.6,1.4-1.1,2.2-1.5c1.6-0.8,3.4-1.2,5.1-1.1c1.8,0.1,3.5,0.6,5.1,1.5c0.8,0.5,1.5,1,2.1,1.6c0.6,0.6,1.1,1.3,1.5,2.1
			c0.8,1.6,1,3.3,0.8,5.1c-0.3,1.7-1.1,3.3-2.3,4.5c-1.2,1.2-2.8,1.9-4.4,2c-1.6,0.1-3.3-0.4-4.6-1.4c-0.6-0.5-1.1-1.1-1.5-1.8
			c-0.4-0.7-0.6-1.4-0.6-2.2c-0.1-1.5,0.5-3.1,1.6-4.1c1-1,2.6-1.5,3.9-1.2c0.7,0.1,1.3,0.5,1.9,0.9c0.5,0.4,0.9,1,1.1,1.6
			c0.2,0.6,0.2,1.3,0.1,1.9c-0.1,0.6-0.5,1.2-0.9,1.6c-0.4,0.4-1,0.7-1.6,0.8c-0.6,0.1-1.2,0-1.7-0.3c-0.5-0.3-0.9-0.7-1.1-1.2
			c-0.2-0.5-0.2-1-0.1-1.5c0.1-0.2,0.2-0.5,0.3-0.7c0.1-0.1,0.1-0.2,0.2-0.3c0.1-0.1,0.2-0.2,0.3-0.2c0.4-0.3,0.9-0.3,1.3-0.3
			c0.5,0.1,0.8,0.3,1.1,0.7c0.2,0.3,0.3,0.8,0.2,1.2c-0.1,0.4-0.3,0.7-0.7,0.9c-0.3,0.2-0.7,0.2-1,0.1c-0.3-0.1-0.6-0.4-0.6-0.6
			c-0.1-0.3,0-0.6,0.1-0.8c0.1-0.2,0.4-0.4,0.6-0.4c0.2,0,0.4,0,0.6,0.1c0.3,0.2,0.3,0.6,0.3,0.7c-0.1,0.2-0.1,0.2-0.1,0.2
			c0,0,0.1-0.1,0.2-0.2c0.1-0.2,0.1-0.5-0.2-0.8c-0.2-0.1-0.4-0.2-0.6-0.2c-0.2,0-0.5,0.2-0.7,0.4c-0.2,0.2-0.2,0.6-0.1,0.9
			c0.1,0.3,0.4,0.6,0.7,0.8c0.3,0.2,0.8,0.2,1.2,0c0.4-0.2,0.7-0.6,0.8-1c0.1-0.5,0.1-1-0.2-1.4c-0.3-0.4-0.8-0.8-1.3-0.9
			c-0.5-0.1-1.2-0.1-1.7,0.3c-0.1,0.1-0.2,0.2-0.4,0.3c-0.1,0.1-0.2,0.2-0.3,0.3c-0.2,0.2-0.3,0.5-0.4,0.8c-0.2,0.6-0.2,1.3,0.1,1.9
			c0.2,0.6,0.8,1.2,1.4,1.5c0.6,0.3,1.3,0.5,2.1,0.4c0.7-0.1,1.5-0.4,2-0.9c0.6-0.5,1-1.2,1.2-2c0.2-0.8,0.2-1.6,0-2.4
			c-0.2-0.8-0.7-1.6-1.4-2.1c-0.6-0.6-1.4-1-2.3-1.2c-1.7-0.4-3.7,0-5.1,1.3c-1.4,1.3-2.2,3.2-2.2,5.1c0,1,0.3,2,0.7,2.9
			c0.4,0.9,1.1,1.7,1.9,2.4c1.5,1.3,3.6,2.1,5.7,2c2.1,0,4.3-0.9,5.8-2.4c1.5-1.5,2.6-3.5,3.1-5.6c0.4-2.2,0.2-4.5-0.8-6.5
			c-0.5-1-1.1-2-1.9-2.8c-0.8-0.8-1.6-1.5-2.6-2.2c-1.9-1.2-4.1-1.9-6.4-2.1c-2.3-0.2-4.6,0.3-6.6,1.3c-1,0.5-2,1.1-2.9,1.8
			c-0.9,0.7-1.6,1.6-2.3,2.4c-1.4,1.8-2.4,3.8-2.9,6c0,0.2-0.1,0.3-0.1,0.5v7.5c0.4,1.7,1,3.3,1.9,4.8c0.6,0.9,1.2,1.8,1.9,2.6
			c0.7,0.8,1.5,1.5,2.3,2.2c0.1,0.1,0.1,0.1,0.2,0.1h9.1C33.2,50.7,30.8,49.6,28.7,48z"/>
		<path fill="#772B90" d="M51.8,45.7c-0.2,0.2-0.3,0.4-0.5,0.5c-0.4,0.5-0.9,0.9-1.4,1.3c-1,0.9-2.2,1.6-3.4,2.2
			c-1.2,0.6-2.6,1.1-4,1.3h9.3V45.7z"/>
	</g>
</g>
</svg>
