<?xml version="1.0" encoding="utf-8"?>
<!-- Generator: Adobe Illustrator 18.1.0, SVG Export Plug-In . SVG Version: 6.00 Build 0)  -->
<!DOCTYPE svg PUBLIC "-//W3C//DTD SVG 1.1//EN" "http://www.w3.org/Graphics/SVG/1.1/DTD/svg11.dtd">
<svg version="1.1" id="Layer_1" xmlns="http://www.w3.org/2000/svg" xmlns:xlink="http://www.w3.org/1999/xlink" x="0px" y="0px"
	 viewBox="0 0 72 72" enable-background="new 0 0 72 72" xml:space="preserve">
<g>
	<g>
		<g>
			<path fill="#247ABF" d="M49.2,41.1c-0.4-2.2-1.2-4.2-2.1-6.2C44.8,29.7,42,24.8,39,20c-1-1.6-2-3.1-3-4.7
				c-0.1,0.2-0.2,0.3-0.3,0.5c-2.2,3.7-4.5,7.3-6.7,11c-2,3.5-3.8,7.1-5.3,10.9c-0.9,2.5-1.5,5.5-1,8.2c1.1,5.8,7.1,10.4,13.2,11
				c0,0,0,0,0,0V42.8h-2.5v10.3c-3.9-1.3-7.5-4.5-8.2-8.3c-0.4-2.2,0-4.7,0.8-6.7c1.2-3.1,2.6-6,4.3-8.8c1.7-3,3.6-5.9,5.4-8.9
				c0.1-0.1,0.1-0.2,0.3-0.4c0.8,1.3,1.6,2.6,2.4,3.8c2.4,3.9,4.7,7.9,6.6,12.1c0.7,1.6,1.4,3.3,1.7,5c0.4,2.2,0,4.7-0.9,6.6
				c-1.3,2.7-4,4.9-7,5.8v3.3c4-1,7.4-3.7,9.3-7.5C49.3,46.8,49.8,43.8,49.2,41.1z"/>
		</g>
	</g>
</g>
</svg>
