<?xml version="1.0" encoding="utf-8"?>
<!-- Generator: Adobe Illustrator 18.1.1, SVG Export Plug-In . SVG Version: 6.00 Build 0)  -->
<!DOCTYPE svg PUBLIC "-//W3C//DTD SVG 1.1//EN" "http://www.w3.org/Graphics/SVG/1.1/DTD/svg11.dtd">
<svg version="1.1"
	 id="svg2985" inkscape:version="0.48.2 r9819" sodipodi:docname="Kopia tie.svg" xmlns:sodipodi="http://sodipodi.sourceforge.net/DTD/sodipodi-0.dtd" xmlns:svg="http://www.w3.org/2000/svg" xmlns:cc="http://creativecommons.org/ns#" xmlns:inkscape="http://www.inkscape.org/namespaces/inkscape" xmlns:dc="http://purl.org/dc/elements/1.1/" xmlns:rdf="http://www.w3.org/1999/02/22-rdf-syntax-ns#"
	 xmlns="http://www.w3.org/2000/svg" xmlns:xlink="http://www.w3.org/1999/xlink" x="0px" y="0px" viewBox="0 0 216 216"
	 enable-background="new 0 0 216 216" xml:space="preserve">
<sodipodi:namedview  inkscape:pageopacity="0.0" inkscape:window-width="1280" inkscape:window-maximized="1" inkscape:window-height="751" inkscape:grid-bbox="true" inkscape:window-x="-4" inkscape:pageshadow="2" inkscape:document-units="px" inkscape:window-y="-4" inkscape:current-layer="layer1" inkscape:cy="24.727273" borderopacity="1.0" showgrid="true" inkscape:cx="32" id="base" inkscape:zoom="5.5" pagecolor="#ffffff" bordercolor="#666666">
	</sodipodi:namedview>
<g>
	<g id="layer1" inkscape:groupmode="layer" inkscape:label="Layer 1">
		<path id="path367" inkscape:connector-curvature="0" fill="#772B90" d="M123.2,65.6c-4.1,0-7.4,3.4-7.4,7.4s3.4,7.4,7.4,7.4
			s7.4-3.4,7.4-7.4S127.6,65.6,123.2,65.6z M93.5,65.6c-4.1,0-7.4,3.4-7.4,7.4s3.4,7.4,7.4,7.4s7.4-3.4,7.4-7.4S97.9,65.6,93.5,65.6
			z M78.6,142.3c0,4,3.4,7.4,7.4,7.4h44.2c4.1,0,7.4-3.4,7.4-7.4v-33.1H78.3v33.1H78.6z M62.4,63.6c-1.4-1.4-2.4-3.4-2.4-5.4
			c0-2,0.7-3.7,2.4-5.4c1.4-1.4,3.4-2.4,5.4-2.4s3.7,0.7,5.4,2.4l-1.7,1.4c10.1-7.8,22.9-12.8,36.8-12.8s26.7,4.7,36.8,12.8
			l-1.7-1.4c1.4-1.4,3.4-2.4,5.4-2.4c2,0,3.7,0.7,5.4,2.4c1.3,1.4,2.4,3.4,2.4,5.4c0,2-0.7,3.7-2.4,5.4l1.7,1.4
			c-15.9,15.9-17.9,36.8-17.9,36.8H78.6c-1.4,0,1.4-17.9-17.9-36.8L62.4,63.6z"/>
	</g>
	<path fill="#772B90" d="M68.2,115.3c0,5.1-4.1,9.1-9.1,9.1l0,0c-5.1,0-9.1-4-9.1-9.1l0,0c0-5.1,4.1-9.1,9.1-9.1l0,0
		C64.1,105.8,68.2,110.2,68.2,115.3L68.2,115.3z"/>
	<path fill="#772B90" d="M166.1,93.7c0,5.1-4.1,9.1-9.1,9.1l0,0c-5.1,0-9.1-4-9.1-9.1l0,0c0-5.1,4.1-9.1,9.1-9.1l0,0
		C162,84.5,166.1,88.6,166.1,93.7L166.1,93.7z"/>
	<path fill="#772B90" d="M124.9,174.7c-5.1,0-9.1-4-9.1-9.1l0,0c0-5.1,4.1-9.1,9.1-9.1l0,0c5.1,0,9.1,4,9.1,9.1l0,0
		C134,170.6,129.9,174.7,124.9,174.7L124.9,174.7z"/>
	<path fill="#772B90" d="M91.1,174.7c-5.1,0-9.1-4-9.1-9.1l0,0c0-5.1,4.1-9.1,9.1-9.1l0,0c5.1,0,9.1,4,9.1,9.1l0,0
		C100.2,170.6,96.2,174.7,91.1,174.7L91.1,174.7z"/>
</g>
</svg>
