<?xml version="1.0" encoding="utf-8"?>
<!-- Generator: Adobe Illustrator 18.1.0, SVG Export Plug-In . SVG Version: 6.00 Build 0)  -->
<!DOCTYPE svg PUBLIC "-//W3C//DTD SVG 1.1//EN" "http://www.w3.org/Graphics/SVG/1.1/DTD/svg11.dtd">
<svg version="1.1" id="Layer_1" xmlns="http://www.w3.org/2000/svg" xmlns:xlink="http://www.w3.org/1999/xlink" x="0px" y="0px"
	 viewBox="0 0 125 125" enable-background="new 0 0 125 125" xml:space="preserve">
<g>
	<g>
		<g id="Layer_x0020_1_15_">
			<path d="M9.6,7.6h105.8h2v2v105.8v2h-2H9.6h-2v-2V9.6v-2H9.6z M18.7,82.7l30.7,30.7h6.9L22.2,79.2L18.7,82.7z M43.8,113.4
				L15.9,85.5l-4.3,4.3v23.6H43.8z M32.3,69.1l44.3,44.3h20.8L55.9,72l-5.2,5.2l-1.4,1.4l-1.4-1.4L36.1,65.3L32.3,69.1z M70.9,113.4
				L29.4,72L25,76.4l37,37H70.9z M58.7,69.1l44.3,44.3h7.5l-48-48L58.7,69.1z M72,55.9l41.4,41.4V76.9L95.2,58.8l-4.8,5.1L89,65.4
				l-1.5-1.5L75.7,52.1L72,55.9z M113.4,103L69.1,58.7l-3.8,3.8l48,48V103z M98,55.8l15.4,15.4v-6.5l-11.9-12.6L98,55.8z M78.6,49.3
				l10.3,10.3l9.8-10.3l-9.8-10.3L78.6,49.3z M11.6,84.1l23-23l1.4-1.4l1.4,1.4l11.8,11.8l38.2-38.2l1.5-1.5l1.4,1.5l23,24.3V11.6
				H11.6V84.1z M36.1,27.4c2.4,0,4.5,1,6.1,2.5c1.6,1.6,2.5,3.7,2.5,6.1s-1,4.5-2.5,6.1c-1.6,1.6-3.7,2.5-6.1,2.5s-4.5-1-6.1-2.5
				c-1.6-1.6-2.5-3.7-2.5-6.1s1-4.5,2.5-6.1C31.5,28.4,33.7,27.4,36.1,27.4z"/>
		</g>
	</g>
</g>
</svg>
